
<?xml version="1.0" encoding="utf-8"?>
<!-- Generator: Adobe Illustrator 25.0.0, SVG Export Plug-In . SVG Version: 6.00 Build 0)  -->
<svg version="1.1" baseProfile="basic" id="Layer_1"
     xmlns="http://www.w3.org/2000/svg" xmlns:xlink="http://www.w3.org/1999/xlink" x="0px" y="0px" viewBox="0 0 537 533"
     xml:space="preserve">
<linearGradient id="SVGID_1_" gradientUnits="userSpaceOnUse" x1="-99.0532" y1="124.3207" x2="-99.0532" y2="124.3207">
	<stop  offset="0" style="stop-color:#B79970"/>
    <stop  offset="1" style="stop-color:#B79970"/>
</linearGradient>
    <path fill="none" stroke="url(#SVGID_1_)" stroke-width="5" stroke-linecap="round" stroke-linejoin="round" stroke-miterlimit="10" d="
	M-99.05,124.32"/>
    <path stroke="#010202" stroke-miterlimit="10" d="M330.25,197.13c-3.77-9.49-8.14-17.74-14.77-30.27
	c-8.71-16.46-15.3-26.93-17.11-29.77c-13.71-21.58-20.56-32.37-27.43-32.62c-7.22-0.26-15.04,10.69-30.39,32.62
	c-5.3,7.56-12.11,17.36-20.01,31.87c-8.05,14.78-14.28,26.22-18.53,42.25c-1.8,6.8-5.53,20.84-4.53,33.98
	c2.14,28.23,27.33,69.6,68.47,71.8c0.45-4.25,1.85-18.22,1.66-24.76c-0.23-7.77-7.26-10.02-10.13-12.07
	c-2.87-2.06-3.52-4.31-1.92-4.22c1.6,0.09,5.99,4.03,6.33,3.31c0.34-0.72-4.97-5.05-6.66-7.63c-1.69-2.58-0.52-3.22,0.17-3.46
	c0.69-0.23,7.77,7.94,8.18,7.47c0.42-0.47-5.23-10.33-4.96-11.12c0.27-0.78,1.7-2.4,4.15,3.13c2.45,5.53,6.37,8.09,5.58,3.48
	c-0.8-4.61-1.51-9.93,0.54-8.78c2.05,1.15,2.8,12.65,5.6,13.25c2.8,0.59,5.85-3.08,6.6-4.79c0.75-1.71,3.08-2.57,3.53-0.73
	c0.45,1.84-4.15,4.38-7.06,16.48c-2.36,9.81,0.3,24.59,1.39,29.81c37.42-5.68,60.92-43.96,62.35-71.18
	C342.22,227.24,333.95,206.44,330.25,197.13z M208.44,258.19c0,0,26.41-23.15,45.05,5.65c0,0-17.27-0.42-24.35-3.57
	c0,0,15.43,8.51,24.16,7.42C253.31,267.69,232.02,282.65,208.44,258.19z M224.34,293.22c0,0,6.17-23.83,28.33-14.5
	c0,0-10.17,6.57-15.52,7.54c0,0,12.3-1.16,16.93-5.23C254.09,281.03,247.66,298.09,224.34,293.22z M262.25,258.29
	c0,0-10.99-15.91-12.81-24.39c0,0,2.48,19.58,9.2,26.76c0,0-27.57-9.4-20.96-46.86C237.69,213.8,276.04,222.44,262.25,258.29z
	 M279.53,264.98c0,0,0.85-21.26,4.87-29.92c0,0-10.77,18.84-9.61,29.62c0,0-18.01-26.5,12.57-55.06
	C287.36,209.61,315.36,242.58,279.53,264.98z M286.88,280.31c0,0,10.95,3.62,14.86,7c0,0-8.21-8.42-13.99-9.42
	c0,0,16.49-5.44,26.81,14.76C314.56,292.64,293.21,302.31,286.88,280.31z M288.68,270.64c0,0,15.11-8.06,22.76-8.8
	c0,0-17.48,0.2-24.48,5.39c0,0,11.06-23.31,43.36-13.7C330.32,253.53,318.83,286.41,288.68,270.64z"/>
    <g>
	<path d="M86.71,352.18c0-4.06,3.43-5.34,8.67-5.34h24.66c17.61,0,22.31,5.95,22.31,11.12c0,4.34-4.15,8.62-11.2,9.62v0.11
		c7.59,0.67,8.94,4.06,8.94,8.12c0,4.61,1.99,6.34,1.99,8.23c0,2.11-3.52,3.56-6.96,3.56c-8.13,0-8.76-4.84-8.76-6.45
		c0-7-2.08-9.84-10.21-9.84h-14.63v11.73c0,2.72-2.89,4.56-7.41,4.56c-4.52,0-7.41-1.83-7.41-4.56V352.18z M101.52,364.63h14.81
		c5.6,0,11.2-0.89,11.2-5.39c0-4.28-4.25-5.39-10.75-5.39h-15.26V364.63z"/>
        <path d="M153.99,352.18c0-4.06,3.43-5.34,8.67-5.34h34.77c4.33,0,7.5,0.78,7.5,3.67s-3.16,3.67-7.5,3.67H168.8v8.67h25.11
		c3.88,0,6.95,0.67,6.95,3.5s-3.07,3.5-6.95,3.5H168.8v9.67h29.35c4.33,0,7.5,0.78,7.5,3.67s-3.16,3.67-7.5,3.67h-35.5
		c-5.24,0-8.67-1.28-8.67-5.34V352.18z"/>
        <path d="M249.55,363.68c13.55,1.89,16.98,6.84,16.98,11.51c0,7.23-8.85,12.62-26.73,12.62c-18.79,0-27.19-5.78-27.19-10.12
		c0-2.22,2.62-3.78,6.23-3.78c8.04,0,5.96,7.23,20.95,7.23c7.68,0,11.92-2.61,11.92-5.28c0-1.61-1.26-3.39-6.32-4.17l-16.71-2.61
		c-13.46-2.11-15.9-6.67-15.9-10.95c0-8.89,13.37-12.23,25.92-12.23c11.56,0,25.2,4,25.2,9.34c0,2.28-3.16,3.61-6.77,3.61
		c-6.86,0-5.6-5.95-19.42-5.95c-6.86,0-10.66,1.95-10.66,4.72s5.42,3.67,10.12,4.34L249.55,363.68z"/>
        <path d="M291.91,348.9c1.26-2.06,3.61-2.78,7.23-2.78h3.52c3.34,0,6.32,0.5,7.95,3.34l17.88,30.63c0.54,0.89,1.45,2.5,1.45,3.5
		c0,2.22-3.16,4-6.96,4c-3.25,0-5.6-0.72-6.68-2.5l-3.79-6.67h-23.84l-3.88,6.67c-0.99,1.78-3.07,2.5-6.59,2.5
		c-4.06,0-6.86-1.56-6.86-4c0-1,0.9-2.61,1.45-3.5L291.91,348.9z M300.85,356.01h-0.18l-8.76,16.07h17.34L300.85,356.01z"/>
        <path d="M337.61,352.18c0-4.06,3.43-5.34,8.67-5.34h24.66c17.61,0,22.31,5.95,22.31,11.12c0,4.34-4.15,8.62-11.2,9.62v0.11
		c7.59,0.67,8.94,4.06,8.94,8.12c0,4.61,1.99,6.34,1.99,8.23c0,2.11-3.52,3.56-6.96,3.56c-8.13,0-8.76-4.84-8.76-6.45
		c0-7-2.08-9.84-10.21-9.84h-14.63v11.73c0,2.72-2.89,4.56-7.41,4.56c-4.52,0-7.41-1.83-7.41-4.56V352.18z M352.42,364.63h14.81
		c5.6,0,11.2-0.89,11.2-5.39c0-4.28-4.25-5.39-10.75-5.39h-15.26V364.63z"/>
        <path d="M420.43,354.51h-14c-4.25,0-7.68-1.33-7.68-3.83c0-2.5,3.43-3.84,7.68-3.84h42.81c4.24,0,7.68,1.33,7.68,3.84
		c0,2.5-3.43,3.83-7.68,3.83h-14v28.52c0,2.72-2.89,4.56-7.41,4.56s-7.41-1.83-7.41-4.56V354.51z"/>
</g>
    <g>
	<path d="M150.61,403.96c0-0.97,0.73-1.48,1.83-1.48c1.11,0,1.83,0.51,1.83,1.48v4.08h0.05c0.73-0.77,2.01-1.56,4.09-1.56
		c2.21,0,4.62,0.89,4.62,3.9v5.77c0,0.79-0.4,1.48-1.83,1.48s-1.83-0.69-1.83-1.48v-5.18c0-1.2-0.73-2.05-2.31-2.05
		c-1.28,0-2.79,0.85-2.79,2.34v4.89c0,0.79-0.4,1.48-1.83,1.48s-1.83-0.69-1.83-1.48V403.96z"/>
        <path d="M178.14,414.5c0,1.24,0.38,1.52,0.38,1.99c0,0.67-0.78,1.14-1.66,1.14c-1.58,0-2.11-0.81-2.16-1.73
		c-1.43,1.28-3.09,1.73-5.02,1.73c-2.08,0-4.14-1.16-4.14-3.03c0-2.46,2.31-3.15,5.12-3.41l2.24-0.2c0.88-0.08,1.58-0.24,1.58-1.1
		c0-0.85-1.08-1.22-2.31-1.22c-2.71,0-2.79,1.62-4.24,1.62c-0.93,0-1.56-0.53-1.56-1.14c0-1.18,2.06-2.68,5.83-2.68
		c3.52,0,5.95,0.91,5.95,3.05V414.5z M174.47,412.37c-0.4,0.3-1.16,0.41-1.58,0.47l-1.33,0.16c-1.53,0.18-2.36,0.57-2.36,1.46
		c0,0.67,0.78,1.22,2.04,1.22c2.01,0,3.24-1.06,3.24-2.15V412.37z"/>
        <path d="M181.3,407.96c0-0.89,0.5-1.48,1.66-1.48s1.66,0.59,1.66,1.48v0.39h0.05c1.03-1.1,2.36-1.87,4.45-1.87
		c2.21,0,4.62,0.89,4.62,3.9v5.77c0,0.79-0.4,1.48-1.83,1.48s-1.83-0.69-1.83-1.48v-5.18c0-1.2-0.73-2.05-2.31-2.05
		c-1.28,0-2.79,0.85-2.79,2.34v4.89c0,0.79-0.4,1.48-1.83,1.48s-1.83-0.69-1.83-1.48V407.96z"/>
        <path d="M209.08,416.23c0,0.91-0.53,1.4-1.66,1.4c-1.08,0-1.66-0.49-1.66-1.4v-0.47h-0.05c-0.6,1.26-2.08,1.87-3.87,1.87
		c-3.06,0-5.75-1.81-5.75-5.65c0-2.84,1.78-5.5,5.65-5.5c1.63,0,2.89,0.55,3.62,1.5h0.05v-4.02c0-0.97,0.73-1.48,1.83-1.48
		s1.83,0.51,1.83,1.48V416.23z M202.67,415.32c2.13,0,2.94-1.54,2.94-3.23c0-1.52-0.7-3.31-2.94-3.29c-2.34,0-2.91,1.91-2.91,3.29
		C199.76,413.83,200.72,415.27,202.67,415.32z"/>
        <path d="M211.99,407.96c0-0.89,0.65-1.48,1.73-1.48s1.73,0.59,1.73,1.48v0.39h0.05c0.96-1.18,2.56-1.87,4.42-1.87
		c1.26,0,2.84,0.47,3.52,1.87c1.03-1.16,2.34-1.87,4.32-1.87c2.54,0,4.57,0.93,4.57,3.59v6.07c0,0.79-0.4,1.48-1.83,1.48
		s-1.83-0.69-1.83-1.48v-5.32c0-1.06-0.58-1.91-2.01-1.91c-1.41,0-2.66,0.91-2.66,2.3v4.93c0,0.79-0.4,1.48-1.83,1.48
		s-1.83-0.69-1.83-1.48v-5.32c0-1.06-0.58-1.91-2.01-1.91c-1.41,0-2.66,0.91-2.66,2.3v4.93c0,0.79-0.4,1.48-1.83,1.48
		s-1.83-0.69-1.83-1.48V407.96z"/>
        <path d="M247.43,414.5c0,1.24,0.38,1.52,0.38,1.99c0,0.67-0.78,1.14-1.66,1.14c-1.58,0-2.11-0.81-2.16-1.73
		c-1.43,1.28-3.09,1.73-5.02,1.73c-2.08,0-4.14-1.16-4.14-3.03c0-2.46,2.31-3.15,5.12-3.41l2.24-0.2c0.88-0.08,1.58-0.24,1.58-1.1
		c0-0.85-1.08-1.22-2.31-1.22c-2.71,0-2.79,1.62-4.24,1.62c-0.93,0-1.56-0.53-1.56-1.14c0-1.18,2.06-2.68,5.83-2.68
		c3.52,0,5.95,0.91,5.95,3.05V414.5z M243.76,412.37c-0.4,0.3-1.16,0.41-1.58,0.47l-1.33,0.16c-1.53,0.18-2.36,0.57-2.36,1.46
		c0,0.67,0.78,1.22,2.04,1.22c2.01,0,3.24-1.06,3.24-2.15V412.37z"/>
        <path d="M263.03,416.23c0,0.91-0.53,1.4-1.66,1.4c-1.08,0-1.66-0.49-1.66-1.4v-0.47h-0.05c-0.6,1.26-2.08,1.87-3.87,1.87
		c-3.06,0-5.75-1.81-5.75-5.65c0-2.84,1.78-5.5,5.65-5.5c1.63,0,2.89,0.55,3.62,1.5h0.05v-4.02c0-0.97,0.73-1.48,1.83-1.48
		s1.83,0.51,1.83,1.48V416.23z M256.62,415.32c2.13,0,2.94-1.54,2.94-3.23c0-1.52-0.7-3.31-2.94-3.29c-2.34,0-2.91,1.91-2.91,3.29
		C253.71,413.83,254.67,415.27,256.62,415.32z"/>
        <path d="M269.06,412.61c0,1.56,1.26,2.7,3.39,2.7c2.76,0,2.76-1.46,4.24-1.46c0.88,0,1.51,0.61,1.51,1.16
		c0,1.79-3.54,2.62-5.75,2.62c-5.12,0-7.06-2.8-7.06-5.38c0-3.45,2.59-5.77,6.93-5.77c4.22,0,6.63,2.42,6.63,4.85
		c0,1.02-0.38,1.28-1.61,1.28H269.06z M275.49,410.91c-0.2-1.36-1.46-2.36-3.09-2.36c-1.83,0-2.94,0.91-3.34,2.36H275.49z"/>
        <path d="M300.05,412.8c0,3.07-2.11,4.92-6.18,4.92c-4.95,0-5.88-2.66-5.88-4.1c0-1.24,0.7-2.03,1.96-2.03
		c1.48,0,1.86,0.93,1.86,1.93c0,0.95,0.55,1.64,2.01,1.64c1.36,0,2.11-0.81,2.11-2.4v-8.61c0-1,0.8-1.67,2.06-1.67
		s2.06,0.67,2.06,1.67V412.8z"/>
        <path d="M306.53,412.61c0,1.56,1.26,2.7,3.39,2.7c2.76,0,2.76-1.46,4.24-1.46c0.88,0,1.51,0.61,1.51,1.16
		c0,1.79-3.54,2.62-5.75,2.62c-5.12,0-7.06-2.8-7.06-5.38c0-3.45,2.59-5.77,6.93-5.77c4.22,0,6.63,2.42,6.63,4.85
		c0,1.02-0.38,1.28-1.61,1.28H306.53z M312.96,410.91c-0.2-1.36-1.46-2.36-3.09-2.36c-1.83,0-2.94,0.91-3.34,2.36H312.96z"/>
        <path d="M317.91,408.96c-0.13-0.33-0.25-0.65-0.25-1.1c0-0.77,0.85-1.38,1.78-1.38c1.36,0,1.56,0.59,1.81,1.44l1.93,6.5h0.05
		l1.56-5.91c0.3-1.16,0.6-2.07,2.31-2.03c1.73-0.04,2.08,0.85,2.41,2.03l1.58,5.91h0.05l1.81-6.5c0.23-0.85,0.45-1.44,1.81-1.44
		c0.93,0,1.78,0.61,1.78,1.38c0,0.45-0.13,0.77-0.25,1.1l-2.69,7.07c-0.53,1.4-0.93,1.6-2.39,1.6c-1.53,0-1.91-0.37-2.29-1.54
		l-1.81-5.83h-0.05l-1.81,5.83c-0.38,1.18-0.75,1.54-2.29,1.54c-1.46,0-1.86-0.2-2.39-1.6L317.91,408.96z"/>
        <path d="M341.44,412.61c0,1.56,1.26,2.7,3.39,2.7c2.76,0,2.76-1.46,4.24-1.46c0.88,0,1.51,0.61,1.51,1.16
		c0,1.79-3.54,2.62-5.75,2.62c-5.12,0-7.06-2.8-7.06-5.38c0-3.45,2.59-5.77,6.93-5.77c4.22,0,6.63,2.42,6.63,4.85
		c0,1.02-0.38,1.28-1.61,1.28H341.44z M347.87,410.91c-0.2-1.36-1.46-2.36-3.09-2.36c-1.83,0-2.94,0.91-3.34,2.36H347.87z"/>
        <path d="M353.9,403.96c0-0.97,0.73-1.48,1.83-1.48s1.83,0.51,1.83,1.48v12.19c0,0.97-0.73,1.48-1.83,1.48s-1.83-0.51-1.83-1.48
		V403.96z"/>
        <path d="M360.88,407.86c0-0.89,0.73-1.38,1.66-1.38c0.93,0,1.66,0.49,1.66,1.38V409h0.05c0.43-1.24,1.26-2.52,3.04-2.52
		c1.16,0,2.01,0.61,2.01,1.44c0,1.1-0.9,1.48-1.81,1.48h-0.65c-1.48,0-2.29,0.83-2.29,3.29v3.45c0,0.79-0.4,1.48-1.83,1.48
		s-1.83-0.69-1.83-1.48V407.86z"/>
        <path d="M375.78,414.52h0.05l2.24-6.72c0.25-0.75,0.75-1.32,1.76-1.32c1.46,0,1.88,0.97,1.88,1.34c0,0.24-0.1,0.55-0.28,0.93
		l-4.25,9.73c-0.88,2.03-1.88,3.09-4.19,3.09c-1.63,0-2.31-0.65-2.31-1.36c0-0.79,0.7-1.2,1.68-1.2h0.38c0.48,0,1-0.02,1.28-0.93
		l-3.82-8.79c-0.3-0.71-0.45-1.04-0.45-1.38c0-0.81,0.8-1.42,1.78-1.42s1.66,0.45,1.88,1.12L375.78,414.52z"/>
</g>
</svg>
