<svg baseProfile="basic" xmlns="http://www.w3.org/2000/svg" viewBox="0 0 537 533" xml:space="preserve"><linearGradient id="a" gradientUnits="userSpaceOnUse" x1="-99.053" y1="124.321" x2="-99.053" y2="124.321"><stop offset="0" style="stop-color:#b79970"/><stop offset="1" style="stop-color:#b79970"/></linearGradient><path stroke="#010202" stroke-miterlimit="10" d="M330.25 197.13c-3.77-9.49-8.14-17.74-14.77-30.27-8.71-16.46-15.3-26.93-17.11-29.77-13.71-21.58-20.56-32.37-27.43-32.62-7.22-.26-15.04 10.69-30.39 32.62-5.3 7.56-12.11 17.36-20.01 31.87-8.05 14.78-14.28 26.22-18.53 42.25-1.8 6.8-5.53 20.84-4.53 33.98 2.14 28.23 27.33 69.6 68.47 71.8.45-4.25 1.85-18.22 1.66-24.76-.23-7.77-7.26-10.02-10.13-12.07-2.87-2.06-3.52-4.31-1.92-4.22 1.6.09 5.99 4.03 6.33 3.31.34-.72-4.97-5.05-6.66-7.63-1.69-2.58-.52-3.22.17-3.46.69-.23 7.77 7.94 8.18 7.47.42-.47-5.23-10.33-4.96-11.12.27-.78 1.7-2.4 4.15 3.13 2.45 5.53 6.37 8.09 5.58 3.48-.8-4.61-1.51-9.93.54-8.78 2.05 1.15 2.8 12.65 5.6 13.25 2.8.59 5.85-3.08 6.6-4.79s3.08-2.57 3.53-.73c.45 1.84-4.15 4.38-7.06 16.48-2.36 9.81.3 24.59 1.39 29.81 37.42-5.68 60.92-43.96 62.35-71.18.92-17.94-7.35-38.74-11.05-48.05zm-121.81 61.06s26.41-23.15 45.05 5.65c0 0-17.27-.42-24.35-3.57 0 0 15.43 8.51 24.16 7.42.01 0-21.28 14.96-44.86-9.5zm15.9 35.03s6.17-23.83 28.33-14.5c0 0-10.17 6.57-15.52 7.54 0 0 12.3-1.16 16.93-5.23.01 0-6.42 17.06-29.74 12.19zm37.91-34.93s-10.99-15.91-12.81-24.39c0 0 2.48 19.58 9.2 26.76 0 0-27.57-9.4-20.96-46.86.01 0 38.36 8.64 24.57 44.49zm17.28 6.69s.85-21.26 4.87-29.92c0 0-10.77 18.84-9.61 29.62 0 0-18.01-26.5 12.57-55.06 0-.01 28 32.96-7.83 55.36zm7.35 15.33s10.95 3.62 14.86 7c0 0-8.21-8.42-13.99-9.42 0 0 16.49-5.44 26.81 14.76 0-.01-21.35 9.66-27.68-12.34zm1.8-9.67s15.11-8.06 22.76-8.8c0 0-17.48.2-24.48 5.39 0 0 11.06-23.31 43.36-13.7 0 0-11.49 32.88-41.64 17.11z"/><path d="M86.71 352.18c0-4.06 3.43-5.34 8.67-5.34h24.66c17.61 0 22.31 5.95 22.31 11.12 0 4.34-4.15 8.62-11.2 9.62v.11c7.59.67 8.94 4.06 8.94 8.12 0 4.61 1.99 6.34 1.99 8.23 0 2.11-3.52 3.56-6.96 3.56-8.13 0-8.76-4.84-8.76-6.45 0-7-2.08-9.84-10.21-9.84h-14.63v11.73c0 2.72-2.89 4.56-7.41 4.56s-7.41-1.83-7.41-4.56v-30.86zm14.81 12.45h14.81c5.6 0 11.2-.89 11.2-5.39 0-4.28-4.25-5.39-10.75-5.39h-15.26v10.78zM153.99 352.18c0-4.06 3.43-5.34 8.67-5.34h34.77c4.33 0 7.5.78 7.5 3.67s-3.16 3.67-7.5 3.67H168.8v8.67h25.11c3.88 0 6.95.67 6.95 3.5s-3.07 3.5-6.95 3.5H168.8v9.67h29.35c4.33 0 7.5.78 7.5 3.67s-3.16 3.67-7.5 3.67h-35.5c-5.24 0-8.67-1.28-8.67-5.34v-29.34zM249.55 363.68c13.55 1.89 16.98 6.84 16.98 11.51 0 7.23-8.85 12.62-26.73 12.62-18.79 0-27.19-5.78-27.19-10.12 0-2.22 2.62-3.78 6.23-3.78 8.04 0 5.96 7.23 20.95 7.23 7.68 0 11.92-2.61 11.92-5.28 0-1.61-1.26-3.39-6.32-4.17l-16.71-2.61c-13.46-2.11-15.9-6.67-15.9-10.95 0-8.89 13.37-12.23 25.92-12.23 11.56 0 25.2 4 25.2 9.34 0 2.28-3.16 3.61-6.77 3.61-6.86 0-5.6-5.95-19.42-5.95-6.86 0-10.66 1.95-10.66 4.72s5.42 3.67 10.12 4.34l12.38 1.72zM291.91 348.9c1.26-2.06 3.61-2.78 7.23-2.78h3.52c3.34 0 6.32.5 7.95 3.34l17.88 30.63c.54.89 1.45 2.5 1.45 3.5 0 2.22-3.16 4-6.96 4-3.25 0-5.6-.72-6.68-2.5l-3.79-6.67h-23.84l-3.88 6.67c-.99 1.78-3.07 2.5-6.59 2.5-4.06 0-6.86-1.56-6.86-4 0-1 .9-2.61 1.45-3.5l19.12-31.19zm8.94 7.11h-.18l-8.76 16.07h17.34l-8.4-16.07zM337.61 352.18c0-4.06 3.43-5.34 8.67-5.34h24.66c17.61 0 22.31 5.95 22.31 11.12 0 4.34-4.15 8.62-11.2 9.62v.11c7.59.67 8.94 4.06 8.94 8.12 0 4.61 1.99 6.34 1.99 8.23 0 2.11-3.52 3.56-6.96 3.56-8.13 0-8.76-4.84-8.76-6.45 0-7-2.08-9.84-10.21-9.84h-14.63v11.73c0 2.72-2.89 4.56-7.41 4.56s-7.41-1.83-7.41-4.56v-30.86zm14.81 12.45h14.81c5.6 0 11.2-.89 11.2-5.39 0-4.28-4.25-5.39-10.75-5.39h-15.26v10.78zM420.43 354.51h-14c-4.25 0-7.68-1.33-7.68-3.83s3.43-3.84 7.68-3.84h42.81c4.24 0 7.68 1.33 7.68 3.84 0 2.5-3.43 3.83-7.68 3.83h-14v28.52c0 2.72-2.89 4.56-7.41 4.56s-7.41-1.83-7.41-4.56v-28.52z"/><g><path d="M150.61 403.96c0-.97.73-1.48 1.83-1.48 1.11 0 1.83.51 1.83 1.48v4.08h.05c.73-.77 2.01-1.56 4.09-1.56 2.21 0 4.62.89 4.62 3.9v5.77c0 .79-.4 1.48-1.83 1.48s-1.83-.69-1.83-1.48v-5.18c0-1.2-.73-2.05-2.31-2.05-1.28 0-2.79.85-2.79 2.34v4.89c0 .79-.4 1.48-1.83 1.48s-1.83-.69-1.83-1.48v-12.19zM178.14 414.5c0 1.24.38 1.52.38 1.99 0 .67-.78 1.14-1.66 1.14-1.58 0-2.11-.81-2.16-1.73-1.43 1.28-3.09 1.73-5.02 1.73-2.08 0-4.14-1.16-4.14-3.03 0-2.46 2.31-3.15 5.12-3.41l2.24-.2c.88-.08 1.58-.24 1.58-1.1 0-.85-1.08-1.22-2.31-1.22-2.71 0-2.79 1.62-4.24 1.62-.93 0-1.56-.53-1.56-1.14 0-1.18 2.06-2.68 5.83-2.68 3.52 0 5.95.91 5.95 3.05v4.98zm-3.67-2.13c-.4.3-1.16.41-1.58.47l-1.33.16c-1.53.18-2.36.57-2.36 1.46 0 .67.78 1.22 2.04 1.22 2.01 0 3.24-1.06 3.24-2.15v-1.16zM181.3 407.96c0-.89.5-1.48 1.66-1.48s1.66.59 1.66 1.48v.39h.05c1.03-1.1 2.36-1.87 4.45-1.87 2.21 0 4.62.89 4.62 3.9v5.77c0 .79-.4 1.48-1.83 1.48s-1.83-.69-1.83-1.48v-5.18c0-1.2-.73-2.05-2.31-2.05-1.28 0-2.79.85-2.79 2.34v4.89c0 .79-.4 1.48-1.83 1.48s-1.83-.69-1.83-1.48v-8.19zM209.08 416.23c0 .91-.53 1.4-1.66 1.4-1.08 0-1.66-.49-1.66-1.4v-.47h-.05c-.6 1.26-2.08 1.87-3.87 1.87-3.06 0-5.75-1.81-5.75-5.65 0-2.84 1.78-5.5 5.65-5.5 1.63 0 2.89.55 3.62 1.5h.05v-4.02c0-.97.73-1.48 1.83-1.48s1.83.51 1.83 1.48v12.27zm-6.41-.91c2.13 0 2.94-1.54 2.94-3.23 0-1.52-.7-3.31-2.94-3.29-2.34 0-2.91 1.91-2.91 3.29 0 1.74.96 3.18 2.91 3.23zM211.99 407.96c0-.89.65-1.48 1.73-1.48s1.73.59 1.73 1.48v.39h.05c.96-1.18 2.56-1.87 4.42-1.87 1.26 0 2.84.47 3.52 1.87 1.03-1.16 2.34-1.87 4.32-1.87 2.54 0 4.57.93 4.57 3.59v6.07c0 .79-.4 1.48-1.83 1.48s-1.83-.69-1.83-1.48v-5.32c0-1.06-.58-1.91-2.01-1.91-1.41 0-2.66.91-2.66 2.3v4.93c0 .79-.4 1.48-1.83 1.48s-1.83-.69-1.83-1.48v-5.32c0-1.06-.58-1.91-2.01-1.91-1.41 0-2.66.91-2.66 2.3v4.93c0 .79-.4 1.48-1.83 1.48s-1.83-.69-1.83-1.48v-8.18zM247.43 414.5c0 1.24.38 1.52.38 1.99 0 .67-.78 1.14-1.66 1.14-1.58 0-2.11-.81-2.16-1.73-1.43 1.28-3.09 1.73-5.02 1.73-2.08 0-4.14-1.16-4.14-3.03 0-2.46 2.31-3.15 5.12-3.41l2.24-.2c.88-.08 1.58-.24 1.58-1.1 0-.85-1.08-1.22-2.31-1.22-2.71 0-2.79 1.62-4.24 1.62-.93 0-1.56-.53-1.56-1.14 0-1.18 2.06-2.68 5.83-2.68 3.52 0 5.95.91 5.95 3.05v4.98zm-3.67-2.13c-.4.3-1.16.41-1.58.47l-1.33.16c-1.53.18-2.36.57-2.36 1.46 0 .67.78 1.22 2.04 1.22 2.01 0 3.24-1.06 3.24-2.15v-1.16zM263.03 416.23c0 .91-.53 1.4-1.66 1.4-1.08 0-1.66-.49-1.66-1.4v-.47h-.05c-.6 1.26-2.08 1.87-3.87 1.87-3.06 0-5.75-1.81-5.75-5.65 0-2.84 1.78-5.5 5.65-5.5 1.63 0 2.89.55 3.62 1.5h.05v-4.02c0-.97.73-1.48 1.83-1.48s1.83.51 1.83 1.48v12.27zm-6.41-.91c2.13 0 2.94-1.54 2.94-3.23 0-1.52-.7-3.31-2.94-3.29-2.34 0-2.91 1.91-2.91 3.29 0 1.74.96 3.18 2.91 3.23zM269.06 412.61c0 1.56 1.26 2.7 3.39 2.7 2.76 0 2.76-1.46 4.24-1.46.88 0 1.51.61 1.51 1.16 0 1.79-3.54 2.62-5.75 2.62-5.12 0-7.06-2.8-7.06-5.38 0-3.45 2.59-5.77 6.93-5.77 4.22 0 6.63 2.42 6.63 4.85 0 1.02-.38 1.28-1.61 1.28h-8.28zm6.43-1.7c-.2-1.36-1.46-2.36-3.09-2.36-1.83 0-2.94.91-3.34 2.36h6.43zM300.05 412.8c0 3.07-2.11 4.92-6.18 4.92-4.95 0-5.88-2.66-5.88-4.1 0-1.24.7-2.03 1.96-2.03 1.48 0 1.86.93 1.86 1.93 0 .95.55 1.64 2.01 1.64 1.36 0 2.11-.81 2.11-2.4v-8.61c0-1 .8-1.67 2.06-1.67s2.06.67 2.06 1.67v8.65zM306.53 412.61c0 1.56 1.26 2.7 3.39 2.7 2.76 0 2.76-1.46 4.24-1.46.88 0 1.51.61 1.51 1.16 0 1.79-3.54 2.62-5.75 2.62-5.12 0-7.06-2.8-7.06-5.38 0-3.45 2.59-5.77 6.93-5.77 4.22 0 6.63 2.42 6.63 4.85 0 1.02-.38 1.28-1.61 1.28h-8.28zm6.43-1.7c-.2-1.36-1.46-2.36-3.09-2.36-1.83 0-2.94.91-3.34 2.36h6.43zM317.91 408.96c-.13-.33-.25-.65-.25-1.1 0-.77.85-1.38 1.78-1.38 1.36 0 1.56.59 1.81 1.44l1.93 6.5h.05l1.56-5.91c.3-1.16.6-2.07 2.31-2.03 1.73-.04 2.08.85 2.41 2.03l1.58 5.91h.05l1.81-6.5c.23-.85.45-1.44 1.81-1.44.93 0 1.78.61 1.78 1.38 0 .45-.13.77-.25 1.1l-2.69 7.07c-.53 1.4-.93 1.6-2.39 1.6-1.53 0-1.91-.37-2.29-1.54l-1.81-5.83h-.05l-1.81 5.83c-.38 1.18-.75 1.54-2.29 1.54-1.46 0-1.86-.2-2.39-1.6l-2.66-7.07zM341.44 412.61c0 1.56 1.26 2.7 3.39 2.7 2.76 0 2.76-1.46 4.24-1.46.88 0 1.51.61 1.51 1.16 0 1.79-3.54 2.62-5.75 2.62-5.12 0-7.06-2.8-7.06-5.38 0-3.45 2.59-5.77 6.93-5.77 4.22 0 6.63 2.42 6.63 4.85 0 1.02-.38 1.28-1.61 1.28h-8.28zm6.43-1.7c-.2-1.36-1.46-2.36-3.09-2.36-1.83 0-2.94.91-3.34 2.36h6.43zM353.9 403.96c0-.97.73-1.48 1.83-1.48s1.83.51 1.83 1.48v12.19c0 .97-.73 1.48-1.83 1.48s-1.83-.51-1.83-1.48v-12.19zM360.88 407.86c0-.89.73-1.38 1.66-1.38.93 0 1.66.49 1.66 1.38V409h.05c.43-1.24 1.26-2.52 3.04-2.52 1.16 0 2.01.61 2.01 1.44 0 1.1-.9 1.48-1.81 1.48h-.65c-1.48 0-2.29.83-2.29 3.29v3.45c0 .79-.4 1.48-1.83 1.48s-1.83-.69-1.83-1.48v-8.28zM375.78 414.52h.05l2.24-6.72c.25-.75.75-1.32 1.76-1.32 1.46 0 1.88.97 1.88 1.34 0 .24-.1.55-.28.93l-4.25 9.73c-.88 2.03-1.88 3.09-4.19 3.09-1.63 0-2.31-.65-2.31-1.36 0-.79.7-1.2 1.68-1.2h.38c.48 0 1-.02 1.28-.93l-3.82-8.79c-.3-.71-.45-1.04-.45-1.38 0-.81.8-1.42 1.78-1.42s1.66.45 1.88 1.12l2.37 6.91z"/></g></svg>